<svg width="239" height="90" viewBox="0 0 239 90" fill="none" xmlns="http://www.w3.org/2000/svg">
<path d="M112.955 37.7713C92.9078 42.0064 73.5132 45.0251 57.8121 47.035L46.8425 48.4442L37.3784 49.4754C31.5487 50.186 26.6538 50.5474 22.5626 51.0132L16.8351 51.6994C18.4704 50.6974 20.1056 49.6954 21.6223 48.6769C24.5994 46.6914 27.4609 44.5068 30.1904 42.1357C34.8311 38.1988 39.0706 33.7299 42.8363 28.8057C49.1478 20.3867 51.3923 14.1081 50.4388 13.4643C48.2495 11.9209 34.4876 33.1648 7.04782 46.7513C4.76586 47.9789 2.82746 49.851 1.43414 52.1729C0.630033 53.684 0.238372 55.4143 0.305255 57.1604C0.408085 58.8542 0.891367 60.4946 1.71251 61.9371C2.99465 64.0864 4.64754 65.9437 6.57919 67.4054C8.14673 68.6842 9.51308 69.7414 10.95 70.8626C16.6318 75.1836 21.8723 78.9092 26.448 81.7063C35.5466 87.4481 41.6517 90.1493 42.2203 89.1687C42.7889 88.188 37.9621 83.6537 29.8289 76.6927L15.6675 64.55C14.4138 63.4389 12.9709 62.2472 11.7549 61.1181C14.806 61.2963 18.637 61.2971 23.7211 61.0163C27.9008 60.8259 32.9158 60.6515 38.849 60.0869L48.5083 59.2066L59.6778 57.8486C75.6208 55.7718 95.271 52.3865 115.471 47.6388C135.6 42.8698 155.486 36.9495 175.044 29.9024C190.65 24.3393 205.98 17.8973 220.973 10.6022C232.329 4.97615 239.053 0.978408 238.752 0.340584C237.996 -1.20401 209.567 11.3159 172.296 22.5168C153.698 28.1845 132.965 33.5541 112.874 37.7367" fill="white"/>
</svg>
