<svg width="90" height="90" viewBox="0 0 90 90" fill="none" xmlns="http://www.w3.org/2000/svg">
<g clip-path="url(#clip0_16_118)">
<path d="M24.9302 79.4709L21.9134 83.7745L20.5307 82.8135L23.4637 78.5517C24.1341 77.5489 24.0084 76.8804 23.0447 76.2537C22.1229 75.6269 21.4525 75.7105 20.7402 76.6715L17.7654 80.8915L16.3827 79.9305L19.3995 75.6269C20.6145 73.9138 22.3743 73.9138 23.9246 75.0002C25.5168 76.0865 26.1034 77.7578 24.9302 79.4709Z" fill="white"/>
<path d="M14.4972 78.1336L13.2821 76.9637L18.9804 70.9888L20.1955 72.1587L14.4972 78.1336Z" fill="white"/>
<path d="M9.67877 73.7881L8.63129 72.5764L18.6872 68.5234L19.7346 69.7351L9.67877 73.7881Z" fill="white"/>
<path d="M12.3603 68.0225L7.83517 70.6966L6.95528 69.2342L11.3966 66.6018C12.4441 65.9751 12.5698 65.3066 11.9832 64.3456C11.3966 63.3846 10.7681 63.1757 9.72064 63.8024L5.2793 66.4347L4.39941 64.9723L8.92455 62.2982C10.7262 61.2537 12.3184 61.964 13.2821 63.5935C14.2877 65.1812 14.162 66.9361 12.3603 68.0225Z" fill="white"/>
<path d="M6.15922 59.2896L3.35196 62.5904L2.72347 60.752L3.81286 59.4985C4.10615 59.1642 4.65084 58.6629 4.69274 58.6211C4.65084 58.6211 3.93855 58.6211 3.47766 58.5375L1.88548 58.245L1.29889 56.5319L5.53073 57.4094L8.92459 53.3564L9.55308 55.1949L7.8771 57.1169C7.58381 57.4929 7.03911 57.9943 6.95531 58.0361C6.99721 58.0361 7.7514 58.0361 8.2123 58.1615L10.7263 58.6629L11.3129 60.3342L6.15922 59.2896Z" fill="white"/>
<path d="M0.125682 50.5988L-1.62246e-05 48.05C-0.125715 45.5013 1.46646 43.6211 3.89663 43.4957C6.3268 43.3704 8.12848 45.0835 8.25417 47.6322L8.37987 50.1809L0.125682 50.5988ZM6.78769 47.7993C6.70389 45.9609 5.57261 45.2088 4.02233 45.2506C2.47205 45.3342 1.42456 46.2116 1.50836 48.05L1.55026 48.8021L6.82959 48.5514L6.78769 47.7993Z" fill="white"/>
<path d="M0 41.1141L0.796089 35.7241L2.26257 35.933L1.71788 39.6517L3.60335 39.9442L4.10615 36.6851L5.53073 36.894L5.02793 40.1531L6.91341 40.4456L7.5 36.5598L8.96648 36.7687L8.12849 42.3258L0 41.1141Z" fill="white"/>
<path d="M7.58379 35.6827L7.24859 34.1367C7.91898 33.9696 8.50557 33.6771 8.75697 32.8832C8.96647 32.2147 8.79887 31.6715 8.33798 31.5044C7.79328 31.3373 7.45809 31.6715 6.8715 32.2983L6.5782 32.6325C5.69831 33.6353 4.81842 34.1785 3.47764 33.7607C2.26256 33.3428 1.67597 32.1311 2.13686 30.7105C2.47206 29.7077 3.10055 29.081 4.18993 28.8721L4.56703 30.3762C3.98044 30.5016 3.68714 30.7105 3.51954 31.1701C3.35194 31.6297 3.56144 32.0476 3.93854 32.1729C4.44133 32.34 4.73463 32.0893 5.23742 31.5044L5.53071 31.1701C6.5782 30.0002 7.45809 29.4152 8.79887 29.8749C10.2654 30.3762 10.6424 31.7551 10.1397 33.301C9.67876 34.8052 8.67317 35.5573 7.58379 35.6827Z" fill="white"/>
<path d="M4.10614 26.0725L4.86033 24.5684L12.2765 28.2035L11.5223 29.6659L4.10614 26.0725Z" fill="white"/>
<path d="M9.25978 24.6936C7.2486 23.273 6.78771 20.8496 8.25419 18.844C9.05028 17.7577 9.88827 17.1727 10.9358 17.0474L11.1872 18.6351C10.6006 18.7187 10.0559 18.9276 9.51117 19.7215C8.63129 20.9332 9.05028 22.3956 10.3073 23.273C11.5642 24.1504 13.1145 24.0251 14.1201 22.6045C14.4134 22.1866 14.7486 21.5599 14.7905 21.1003L13.7011 20.3482L12.5698 21.9777L11.3129 21.1003L13.3659 18.2173L16.3827 20.3482C16.4246 20.9749 16.2151 22.2702 15.3352 23.4819C13.7849 25.6546 11.271 26.0724 9.25978 24.6936Z" fill="white"/>
<path d="M17.1368 15.5012C16.5502 15.5012 15.6703 15.334 15.6703 15.334C15.6703 15.334 16.3826 15.919 16.7597 16.3786L19.0642 18.9273L17.891 19.9719L12.2765 13.8298L12.4022 13.7045L18.1005 13.8298C18.6452 13.8298 19.567 14.0388 19.567 14.0388C19.567 14.0388 18.8547 13.412 18.4776 12.9942L16.1731 10.4454L17.3463 9.40088L22.9189 15.5847L22.7933 15.7101L17.1368 15.5012Z" fill="white"/>
<path d="M24.8044 6.51798L22.7095 7.56255L22.0391 6.2255L27.7793 3.38428L28.4497 4.72132L26.3547 5.76589L29.3296 11.7826L27.8212 12.5347L24.8044 6.51798Z" fill="white"/>
<path d="M31.6759 2.00565L31.8435 1.96387L37.8771 8.81624L36.1592 9.31763L35.405 8.39841L32.3463 9.31763L32.2206 10.5293L30.6703 10.9889L31.6759 2.00565ZM34.3994 7.22849L33.5195 6.18392C33.1424 5.72431 32.6815 5.01401 32.5977 4.93044C32.5977 4.97222 32.5977 5.84966 32.5558 6.4764L32.4301 7.81345L34.3994 7.22849Z" fill="white"/>
<path d="M37.6676 7.26997L38.9665 6.30897C39.3855 6.85214 39.9302 7.22819 40.7262 7.14462C41.4385 7.06106 41.8156 6.68501 41.7737 6.18362C41.6899 5.59866 41.229 5.43153 40.433 5.18083L39.9721 5.05548C38.7151 4.67944 37.8352 4.09448 37.6676 2.71565C37.5419 1.46217 38.3799 0.375818 39.8883 0.208688C40.9776 0.0833393 41.7737 0.375818 42.4441 1.29504L41.229 2.29782C40.8938 1.79643 40.5587 1.6293 40.0559 1.71287C39.5531 1.75465 39.3017 2.13069 39.3436 2.50674C39.3855 3.00813 39.7207 3.17526 40.4749 3.42596L40.9357 3.55131C42.4441 4.01092 43.324 4.55409 43.4497 5.9747C43.6173 7.47888 42.5279 8.43989 40.8938 8.60702C39.3855 8.81593 38.2542 8.18919 37.6676 7.26997Z" fill="white"/>
<path d="M45.2933 0L46.9693 0.125348L46.7598 2.84123C46.7179 3.25905 46.6341 3.80223 46.5503 4.22006C46.7598 3.80223 47.0531 3.34262 47.3883 3.00836L49.8184 0.376045L51.7458 0.501393L48.6871 3.88579L51.4525 8.73259L49.3994 8.56546L47.4721 5.05571L46.5922 5.93315L46.4246 8.31476L44.7486 8.18941L45.2933 0Z" fill="white"/>
<path d="M51.7458 7.18674L53.2961 6.76891C53.5056 7.43743 53.8408 7.98061 54.6368 8.18952C55.3072 8.35665 55.8519 8.14774 55.9776 7.68813C56.1452 7.14495 55.7262 6.81069 55.0558 6.26752L54.6787 5.97504C53.6313 5.13938 53.0028 4.30373 53.338 2.96668C53.6732 1.75498 54.8463 1.04467 56.3128 1.42072C57.3603 1.7132 58.0307 2.25637 58.324 3.34272L56.8156 3.84412C56.648 3.25916 56.3966 2.96668 55.9357 2.88311C55.4748 2.75777 55.0558 2.96668 54.972 3.38451C54.8463 3.8859 55.0977 4.1366 55.7262 4.63799L56.1033 4.93047C57.3603 5.89147 57.9888 6.72713 57.6117 8.06417C57.2346 9.52657 55.8519 10.028 54.3017 9.65192C52.7514 9.23409 51.9553 8.27309 51.7458 7.18674Z" fill="white"/>
<path d="M66.5363 11.5323L69.7626 7.354L71.1034 8.39857L67.9609 12.4933C67.2067 13.4543 67.3743 14.1228 68.2542 14.8331C69.1341 15.5016 69.8464 15.4599 70.5587 14.4989L73.7011 10.4041L75.0419 11.4487L71.8156 15.627C70.5587 17.2983 68.7989 17.2147 67.2905 16.0448C65.824 14.8749 65.2793 13.2036 66.5363 11.5323Z" fill="white"/>
<path d="M76.8854 13.3286L78.0586 14.5403L72.1089 20.2645L70.9357 19.0528L76.8854 13.3286Z" fill="white"/>
<path d="M81.4944 17.8828L82.4581 19.1363L72.1927 22.7714L71.229 21.5179L81.4944 17.8828Z" fill="white"/>
<path d="M78.5615 23.5238L83.2123 21.0586L84.0084 22.5628L79.4413 24.9862C78.3939 25.5293 78.2263 26.2397 78.7291 27.2007C79.2737 28.2034 79.9022 28.4124 80.9497 27.8692L85.5168 25.4458L86.3129 26.95L81.7039 29.4151C79.8603 30.3761 78.3101 29.5823 77.3883 27.911C76.5084 26.2397 76.7179 24.4848 78.5615 23.5238Z" fill="white"/>
<path d="M84.3854 32.507L87.3184 29.3315L87.8631 31.17L86.7318 32.3817C86.3966 32.7159 85.8519 33.1756 85.81 33.2173C85.8519 33.2173 86.5642 33.2173 87.0251 33.3427L88.6173 33.7187L89.1201 35.4318L84.9301 34.3455L81.3687 38.2313L80.824 36.351L82.5838 34.4708C82.919 34.1366 83.4637 33.6352 83.5475 33.5934C83.5056 33.5934 82.7933 33.5516 82.2905 33.4263L79.8184 32.7995L79.3156 31.0864L84.3854 32.507Z" fill="white"/>
<path d="M89.9581 41.3647L90 43.9135C90.0419 46.4622 88.3659 48.2589 85.9358 48.3007C83.5056 48.3425 81.7877 46.5876 81.7458 44.0388L81.7039 41.4901L89.9581 41.3647ZM83.2542 43.9135C83.2961 45.7519 84.3855 46.5458 85.9358 46.5458C87.486 46.504 88.5754 45.6684 88.5335 43.8299V43.0778L83.2542 43.1614V43.9135Z" fill="white"/>
<path d="M89.7067 50.9747L88.6592 56.3229L87.1927 56.0305L87.905 52.3536L86.0614 51.9775L85.4329 55.2366L84.0084 54.9441L84.6368 51.685L82.7514 51.309L81.9972 55.153L80.5307 54.8605L81.6201 49.3452L89.7067 50.9747Z" fill="white"/>
<path d="M81.9134 56.0308L82.1648 57.6185C81.4944 57.7438 80.9078 58.0363 80.5726 58.7884C80.3212 59.4569 80.4888 60.0001 80.9497 60.1672C81.4944 60.3762 81.8715 60.0419 82.4581 59.4152L82.7933 59.0809C83.7151 58.1199 84.6368 57.6185 85.9357 58.1199C87.1089 58.5795 87.6955 59.833 87.1089 61.2536C86.7318 62.2564 86.1033 62.8413 84.972 63.0085L84.6787 61.4625C85.2653 61.379 85.5586 61.17 85.7681 60.7104C85.9357 60.2508 85.7681 59.833 85.391 59.7076C84.9301 59.5405 84.5949 59.7494 84.0503 60.2926L83.7151 60.6269C82.6257 61.755 81.7458 62.2564 80.405 61.755C78.9804 61.2118 78.6452 59.7912 79.2318 58.287C79.7346 56.8246 80.824 56.1143 81.9134 56.0308Z" fill="white"/>
<path d="M84.9302 65.8077L84.1341 67.3119L76.8855 63.3426L77.6816 61.8384L84.9302 65.8077Z" fill="white"/>
<path d="M79.6928 66.9359C81.6201 68.4401 81.9553 70.8635 80.4469 72.8272C79.609 73.8718 78.7291 74.415 77.7235 74.4985L77.514 72.9108C78.1006 72.8272 78.6453 72.6601 79.2319 71.908C80.1537 70.7381 79.8185 69.2757 78.6034 68.3147C77.3883 67.3537 75.838 67.4373 74.7905 68.8161C74.4553 69.2339 74.1201 69.8189 74.0363 70.2785L75.0838 71.1141L76.2989 69.5264L77.4721 70.4456L75.2933 73.2451L72.3604 70.9888C72.3604 70.3621 72.6117 69.1086 73.5335 67.8969C75.2514 65.766 77.7654 65.4735 79.6928 66.9359Z" fill="white"/>
<path d="M71.4385 75.7523C72.0251 75.7941 72.905 76.003 72.905 76.003C72.905 76.003 72.2346 75.3762 71.8575 74.9166L69.6787 72.2425L70.8938 71.2397L76.1732 77.6743L76.0475 77.7996L70.3491 77.4236C69.8044 77.3818 68.8827 77.1729 68.8827 77.1729C68.8827 77.1729 69.553 77.8414 69.9301 78.2592L72.1089 80.9333L70.8938 81.9361L65.6145 75.5016L65.7402 75.3762L71.4385 75.7523Z" fill="white"/>
<path d="M63.352 84.4011L65.4888 83.4401L66.0754 84.819L60.2095 87.4095L59.6229 86.0307L61.7598 85.0697L59.0363 78.8858L60.5866 78.2173L63.352 84.4011Z" fill="white"/>
<path d="M56.271 88.5793L56.1453 88.6211L50.405 81.4762L52.1229 81.0166L52.8352 81.9776L55.9358 81.1837L56.1033 79.972L57.6955 79.5542L56.271 88.5793ZM53.7989 83.2729L54.595 84.3592C54.9721 84.8188 55.3911 85.5709 55.433 85.6545C55.433 85.6127 55.4749 84.7353 55.5587 84.1085L55.7682 82.7715L53.7989 83.2729Z" fill="white"/>
<path d="M50.5726 83.0642L49.2318 83.9417C48.8128 83.3567 48.31 82.9807 47.472 83.0224C46.7597 83.0642 46.3407 83.4403 46.3826 83.9417C46.4245 84.5266 46.8854 84.6938 47.6815 84.9862L48.1005 85.1534C49.3575 85.613 50.1955 86.1979 50.3212 87.5768C50.405 88.8303 49.4832 89.8748 47.9748 89.9584C46.8854 90.042 46.0893 89.7077 45.4609 88.7467L46.7178 87.8275C47.053 88.3289 47.3882 88.496 47.8491 88.496C48.3519 88.4542 48.6452 88.1199 48.6033 87.7021C48.5614 87.2007 48.2262 86.9918 47.5139 86.7411L47.0949 86.574C45.6285 86.0308 44.7486 85.4876 44.6648 84.067C44.581 82.5628 45.7123 81.6436 47.3463 81.5183C48.9385 81.4347 49.986 82.1032 50.5726 83.0642Z" fill="white"/>
<path d="M42.6117 90.0002L40.9357 89.7913L41.2709 87.0754C41.3128 86.6575 41.4385 86.1144 41.5642 85.6965C41.3128 86.1144 41.0195 86.5322 40.6843 86.8665L38.1704 89.4152L36.243 89.2063L39.4692 85.9472L36.9134 80.9751L38.9664 81.2258L40.7681 84.8191L41.6899 83.9835L41.9832 81.6018L43.6592 81.8108L42.6117 90.0002Z" fill="white"/>
<path d="M30.251 82.644C30.3108 82.4597 30.5715 82.4597 30.6314 82.644L30.8915 83.4446C30.9183 83.527 30.9951 83.5828 31.0817 83.5828H31.9236C32.1173 83.5828 32.1979 83.8307 32.0411 83.9446L31.3601 84.4394C31.29 84.4904 31.2606 84.5806 31.2874 84.663L31.5475 85.4637C31.6074 85.6479 31.3965 85.8011 31.2398 85.6873L30.5587 85.1925C30.4886 85.1415 30.3937 85.1415 30.3236 85.1925L29.6426 85.6873C29.4858 85.8011 29.2749 85.6479 29.3348 85.4637L29.5949 84.663C29.6217 84.5806 29.5924 84.4904 29.5223 84.4394L28.8412 83.9446C28.6845 83.8307 28.765 83.5828 28.9588 83.5828H29.8006C29.8873 83.5828 29.964 83.527 29.9908 83.4446L30.251 82.644Z" fill="white"/>
<path d="M62.898 5.87935C62.9579 5.69509 63.2185 5.69509 63.2784 5.87936L63.5386 6.67998C63.5653 6.76238 63.6421 6.81817 63.7288 6.81817H64.5706C64.7643 6.81817 64.8449 7.0661 64.6881 7.17998L64.0071 7.67479C63.937 7.72572 63.9077 7.81599 63.9344 7.89839L64.1946 8.69901C64.2545 8.88328 64.0436 9.0365 63.8868 8.92262L63.2058 8.42781C63.1357 8.37688 63.0407 8.37688 62.9706 8.42781L62.2896 8.92262C62.1329 9.0365 61.922 8.88328 61.9818 8.69901L62.242 7.89839C62.2687 7.81599 62.2394 7.72572 62.1693 7.67479L61.4883 7.17998C61.3315 7.0661 61.4121 6.81817 61.6058 6.81817H62.4476C62.5343 6.81817 62.6111 6.76238 62.6379 6.67998L62.898 5.87935Z" fill="white"/>
<g clip-path="url(#clip1_16_118)">
<path d="M47.3967 32.2724V59.4924H49.2724V63.5295H40.9713V59.4924H42.887V57.414H21.1765V53.3769H23.0522V40.9061H21.1765V36.869H42.887V32.2724H37.7786V34.9904H33.7478V28.2354H56.4561V34.9904H52.4252V32.2724H47.3967ZM27.6816 53.3769H42.887V40.9061H27.6816V53.3769ZM60.7662 36.869C62.0034 36.869 63.1608 37.1088 64.2383 37.5885C65.3159 38.0681 66.2338 38.7077 67.0719 39.5071C67.87 40.3065 68.5086 41.2658 68.9875 42.345C69.4664 43.4242 69.7059 44.5834 69.7059 45.7825V48.5005C69.7059 49.7396 69.4664 50.8987 68.9875 51.9779C68.5086 53.0571 67.87 53.9765 67.0719 54.8159C66.2737 55.6153 65.3159 56.2548 64.2383 56.7345C63.1608 57.2141 62.0034 57.4539 60.7662 57.4539H48.3146V53.3769H60.447C61.0456 53.3769 61.6442 53.257 62.203 53.0172C62.7617 52.7774 63.2406 52.4576 63.6796 52.0179C64.0787 51.5782 64.4379 51.0986 64.6773 50.539C64.9168 49.9794 65.0365 49.3798 65.0365 48.7403V45.5826C65.0365 44.9431 64.9168 44.3435 64.6773 43.7839C64.4379 43.2244 64.1186 42.7047 63.6796 42.305C63.2406 41.8654 62.7617 41.5456 62.203 41.3058C61.6442 41.0659 61.0855 40.946 60.447 40.946H48.3146V36.869H60.7662Z" fill="url(#paint0_linear_16_118)"/>
</g>
</g>
<defs>
<linearGradient id="paint0_linear_16_118" x1="21.1765" y1="45.8824" x2="69.7059" y2="45.8824" gradientUnits="userSpaceOnUse">
<stop stop-color="#FFB80C"/>
<stop offset="0.52" stop-color="#FBBBC3"/>
<stop offset="1" stop-color="#4691F9"/>
</linearGradient>
<clipPath id="clip0_16_118">
<rect width="90" height="90" fill="white"/>
</clipPath>
<clipPath id="clip1_16_118">
<rect width="48.5294" height="35.2941" fill="white" transform="translate(21.1765 28.2354)"/>
</clipPath>
</defs>
</svg>
