<svg width="241" height="240" viewBox="0 0 241 240" fill="none" xmlns="http://www.w3.org/2000/svg">
<g filter="url(#filter0_b_12_400)">
<circle cx="120.5" cy="120" r="120" fill="white" fill-opacity="0.1"/>
<circle cx="120.5" cy="120" r="119.5" stroke="url(#paint0_linear_12_400)"/>
</g>
<g filter="url(#filter1_b_12_400)">
<rect x="70.5" y="70" width="100" height="100" rx="50" fill="#FFD500" fill-opacity="0.8"/>
</g>
<path d="M134.439 118.415L113.719 102.476C112.404 101.465 110.5 102.402 110.5 104.062V135.938C110.5 137.598 112.404 138.535 113.719 137.524L134.439 121.585C135.48 120.785 135.48 119.215 134.439 118.415Z" fill="white"/>
<path d="M90.9043 186.758L83.9037 198.882L82.4488 198.042L85.5591 192.655L79.8782 189.375L76.7679 194.762L75.313 193.922L82.3136 181.798L83.7685 182.638L80.6382 188.059L86.3192 191.339L89.4495 185.918L90.9043 186.758Z" fill="white"/>
<path d="M73.4555 174.201C73.94 174.678 74.2976 175.199 74.5282 175.763C74.7588 176.327 74.8291 176.882 74.7391 177.43C74.649 177.977 74.3748 178.484 73.9164 178.949C73.4486 179.424 72.9511 179.702 72.4237 179.781C71.887 179.87 71.3442 179.794 70.7955 179.553C70.2375 179.322 69.7114 178.963 69.2174 178.477L66.866 176.161L66.3608 176.674C65.8744 177.168 65.6381 177.703 65.6519 178.278C65.6563 178.843 65.9435 179.407 66.5135 179.968C67.0741 180.52 67.6468 180.813 68.2316 180.846C68.807 180.889 69.3763 180.738 69.9393 180.394L70.6571 181.775C70.1596 182.052 69.6329 182.226 69.0772 182.296C68.5121 182.376 67.9317 182.31 67.3361 182.097C66.7216 181.885 66.1246 181.494 65.5451 180.923C64.652 180.044 64.1877 179.128 64.1521 178.176C64.1071 177.234 64.4962 176.344 65.3194 175.508L68.4206 172.359C68.7013 172.074 68.7086 171.8 68.4426 171.539L67.8013 170.907L68.7415 169.952L69.7248 170.921C70.0383 171.229 70.2059 171.563 70.2275 171.921C70.2398 172.288 70.1009 172.619 69.8109 172.914L69.7407 172.985L69.9117 173.154C70.194 173.076 70.5236 173.026 70.9006 173.005C71.2587 172.983 71.6506 173.06 72.0762 173.236C72.5112 173.402 72.9709 173.724 73.4555 174.201ZM72.373 175.044C71.708 174.389 70.9794 174.055 70.1873 174.042C69.3764 174.03 68.6201 174.38 67.9185 175.092L67.7641 175.249L70.0727 177.522C70.5193 177.962 70.988 178.227 71.479 178.318C71.9511 178.408 72.3789 178.259 72.7625 177.869C73.1461 177.48 73.2982 177.031 73.2188 176.522C73.13 176.004 72.848 175.512 72.373 175.044Z" fill="white"/>
<path d="M62.9807 162.103L56.5558 170.265L55.663 168.842L61.3859 161.782L61.2371 161.544L52.3896 163.624L51.4968 162.201L61.6416 159.969L62.9807 162.103Z" fill="white"/>
<path d="M55.5878 146.238C55.905 147.173 55.988 148.06 55.8368 148.9C55.6729 149.744 55.2976 150.484 54.7109 151.12C54.1241 151.756 53.3573 152.234 52.4104 152.556L52.1832 152.633C51.2237 152.959 50.3177 153.048 49.4651 152.901C48.6126 152.754 47.8727 152.4 47.2455 151.839C46.6057 151.281 46.1335 150.555 45.8291 149.658C45.5333 148.787 45.4611 147.953 45.6126 147.155C45.7515 146.361 46.1038 145.657 46.6696 145.043C47.2353 144.428 47.9853 143.962 48.9196 143.645L49.6013 143.414L52.1675 150.97C53.152 150.593 53.8254 150.005 54.1878 149.206C54.5375 148.412 54.558 147.56 54.2493 146.651C53.9791 145.855 53.5881 145.305 53.0762 145C52.5643 144.695 52.0173 144.515 51.4351 144.459L51.6227 142.959C52.0784 143.016 52.5598 143.148 53.0669 143.356C53.5698 143.551 54.046 143.875 54.4955 144.328C54.9407 144.769 55.3048 145.405 55.5878 146.238ZM50.9301 151.369L48.8849 145.347C48.0436 145.689 47.4752 146.213 47.1798 146.918C46.8801 147.612 46.8718 148.375 47.1548 149.208C47.442 150.054 47.9177 150.667 48.5818 151.047C49.246 151.427 50.0287 151.534 50.9301 151.369Z" fill="white"/>
<path d="M52.049 120.934C52.003 121.612 51.8413 122.222 51.5639 122.765C51.2865 123.307 50.9108 123.723 50.4369 124.011C49.9629 124.3 49.4 124.422 48.7482 124.378C48.0831 124.333 47.5485 124.136 47.1445 123.788C46.7271 123.439 46.431 122.978 46.2561 122.405C46.0679 121.831 45.9972 121.198 46.0442 120.506L46.2677 117.213L45.5493 117.165C44.8576 117.118 44.2982 117.287 43.8711 117.672C43.4449 118.044 43.2048 118.629 43.1506 119.427C43.0973 120.212 43.2487 120.837 43.6046 121.303C43.9473 121.767 44.4325 122.1 45.0602 122.303L44.4811 123.747C43.9465 123.551 43.4715 123.265 43.056 122.889C42.6271 122.512 42.2991 122.029 42.0719 121.439C41.8323 120.835 41.74 120.127 41.7951 119.315C41.8799 118.065 42.2718 117.116 42.9706 116.468C43.656 115.82 44.5841 115.536 45.7547 115.615L50.1646 115.914C50.5637 115.941 50.7759 115.769 50.8011 115.396L50.8621 114.498L52.199 114.589L52.1056 115.966C52.0758 116.405 51.9321 116.749 51.6746 116.999C51.4038 117.248 51.0622 117.359 50.6498 117.331L50.55 117.324L50.5338 117.563C50.7766 117.727 51.0291 117.944 51.2913 118.216C51.5411 118.473 51.738 118.821 51.8821 119.258C52.0394 119.697 52.0951 120.255 52.049 120.934ZM50.7043 120.662C50.7675 119.731 50.5458 118.961 50.0393 118.352C49.5203 117.728 48.7619 117.383 47.7642 117.315L47.5447 117.3L47.3253 120.533C47.2829 121.158 47.3873 121.686 47.6387 122.118C47.8777 122.535 48.2699 122.762 48.8153 122.799C49.3607 122.836 49.8004 122.659 50.1343 122.267C50.4692 121.862 50.6592 121.327 50.7043 120.662Z" fill="white"/>
<path d="M57.1843 97.2727L44.3644 91.6468L44.9994 90.2L57.8192 95.8259L57.1843 97.2727Z" fill="white"/>
<path d="M64.2453 85.0532C63.6791 85.8612 63.0088 86.4579 62.2342 86.8432C61.4672 87.2176 60.6556 87.3653 59.7993 87.2863C58.9396 87.1887 58.0894 86.8454 57.2486 86.2563L57.0356 86.1071C56.2057 85.5257 55.5981 84.8477 55.2128 84.0731C54.8352 83.2876 54.6913 82.4705 54.7812 81.6218C54.8788 80.7622 55.2106 79.9283 55.7768 79.1202C56.3429 78.3121 57.0094 77.7209 57.7764 77.3466C58.551 76.9613 59.3681 76.8174 60.2277 76.915C61.0949 77.0016 61.9435 77.3356 62.7735 77.9171L62.9864 78.0663C63.8273 78.6553 64.4365 79.3426 64.8141 80.1282C65.1885 80.8951 65.3269 81.7084 65.2293 82.568C65.1394 83.4167 64.8114 84.2451 64.2453 85.0532ZM63.0823 84.2384C63.679 83.3866 63.8858 82.5221 63.7027 81.6449C63.5162 80.7492 62.9644 79.98 62.0471 79.3373L61.8997 79.234C60.9824 78.5914 60.0764 78.3393 59.1817 78.4776C58.2838 78.5974 57.5365 79.0832 56.9397 79.935C56.3507 80.7758 56.1493 81.6442 56.3358 82.5399C56.5113 83.428 57.0577 84.1934 57.975 84.8361L58.1224 84.9393C59.0397 85.582 59.9511 85.8379 60.8567 85.7072C61.7513 85.5688 62.4932 85.0792 63.0823 84.2384Z" fill="white"/>
<path d="M75.911 72.109C75.1599 72.7489 74.3611 73.158 73.5145 73.3362C72.6781 73.5058 71.8554 73.4448 71.0464 73.1532C70.2389 72.8427 69.5022 72.2968 68.8364 71.5153L68.6678 71.3173C68.0106 70.546 67.5929 69.7371 67.4147 68.8905C67.2466 68.0353 67.3127 67.2082 67.613 66.4094C67.9234 65.6019 68.4542 64.8782 69.2052 64.2383C69.9562 63.5984 70.75 63.1937 71.5864 63.0241C72.433 62.8458 73.26 62.9119 74.0675 63.2224C74.8851 63.5242 75.6226 64.0608 76.2797 64.8321L76.4484 65.03C77.1142 65.8115 77.5311 66.6299 77.6992 67.4851C77.8688 68.3215 77.7984 69.1434 77.488 69.9509C77.1877 70.7498 76.662 71.4692 75.911 72.109ZM74.99 71.0282C75.7817 70.3537 76.1991 69.5689 76.2423 68.6738C76.2869 67.76 75.9461 66.8768 75.2197 66.0242L75.103 65.8872C74.3766 65.0347 73.5631 64.563 72.6624 64.4721C71.7632 64.3624 70.9177 64.6447 70.1261 65.3192C69.3446 65.985 68.9315 66.7749 68.8869 67.6887C68.8336 68.5925 69.1701 69.4706 69.8964 70.3231L70.0132 70.4601C70.7395 71.3127 71.5574 71.7895 72.4667 71.8905C73.3674 71.9814 74.2086 71.694 74.99 71.0282Z" fill="white"/>
<path d="M86.3162 64.2764L80.0292 51.7675L81.4409 51.058L85.1413 58.4204L85.3914 58.2946L87.589 52.6909L89.5547 51.703L86.8496 58.39L94.0896 60.3695L92.1418 61.3485L86.0651 59.6349L85.8149 59.7606L87.7279 63.5669L86.3162 64.2764Z" fill="white"/>
<path d="M114.09 55.7881C113.412 55.8409 112.784 55.7693 112.207 55.5734C111.63 55.3776 111.165 55.0661 110.811 54.6389C110.456 54.2118 110.254 53.6725 110.203 53.0211C110.152 52.3565 110.269 51.7991 110.555 51.3489C110.84 50.8854 111.253 50.5256 111.795 50.2695C112.336 50.0001 112.952 49.8385 113.643 49.7847L116.933 49.5288L116.877 48.811C116.823 48.1197 116.575 47.5907 116.132 47.224C115.702 46.8562 115.088 46.7033 114.291 46.7654C113.506 46.8264 112.91 47.0667 112.501 47.4863C112.091 47.8926 111.832 48.421 111.722 49.0715L110.209 48.7077C110.326 48.1503 110.54 47.6388 110.852 47.1733C111.162 46.6944 111.593 46.2998 112.144 45.9895C112.707 45.6648 113.394 45.471 114.205 45.4079C115.455 45.3107 116.45 45.5609 117.192 46.1585C117.933 46.7429 118.349 47.6199 118.44 48.7897L118.783 53.1964C118.814 53.5952 119.015 53.7801 119.388 53.7512L120.285 53.6814L120.389 55.0173L119.013 55.1244C118.574 55.1585 118.213 55.0662 117.928 54.8476C117.643 54.6157 117.484 54.2938 117.452 53.8817L117.444 53.782L117.205 53.8006C117.078 54.0645 116.9 54.3459 116.669 54.6447C116.45 54.9292 116.135 55.1744 115.723 55.3803C115.312 55.5994 114.768 55.7354 114.09 55.7881ZM114.164 54.4183C115.094 54.3459 115.824 54.015 116.353 53.4255C116.895 52.8217 117.127 52.0213 117.049 51.0243L117.032 50.805L113.802 51.0562C113.177 51.1048 112.669 51.2847 112.279 51.5959C111.901 51.8928 111.733 52.3137 111.776 52.8588C111.818 53.4038 112.057 53.8131 112.493 54.0868C112.942 54.3595 113.499 54.47 114.164 54.4183Z" fill="white"/>
<path d="M131.21 55.9924C130.657 55.9097 130.251 55.694 129.993 55.3455C129.748 54.9988 129.665 54.5618 129.743 54.0343L130.73 47.4275L127.822 46.9934L128.026 45.6286L130.933 46.0626L131.447 42.6208L133.01 42.8541L132.496 46.2959L135.661 46.7684L135.457 48.1333L132.292 47.6608L131.342 54.0302C131.282 54.4258 131.444 54.6522 131.827 54.7093L133.983 55.0311L133.782 56.3762L131.21 55.9924Z" fill="white"/>
<path d="M153.074 62.9797L156.65 53.6685L158.002 54.5245L154.706 62.7583L154.942 62.9081L161.415 56.6859L163.629 58.0876L160.772 66.5996L161.008 66.7494L167.042 60.2491L168.394 61.1051L161.506 68.3191L159.224 66.8746L162.065 58.3519L161.845 58.2128L155.355 64.4242L153.074 62.9797Z" fill="white"/>
<path d="M169.285 74.8847L179.773 65.6111L180.819 66.7947L176.489 70.6234L176.675 70.8332C176.983 70.7388 177.32 70.7075 177.686 70.7395C178.072 70.7726 178.471 70.8916 178.883 71.0964C179.304 71.3112 179.736 71.6683 180.177 72.1678C180.663 72.7171 180.976 73.3126 181.116 73.954C181.275 74.5967 181.244 75.2466 181.025 75.9037C180.815 76.552 180.38 77.1676 179.721 77.7506L175.286 81.672L174.239 80.4883L178.584 76.6464C179.314 76.0017 179.68 75.3488 179.682 74.6877C179.694 74.0367 179.426 73.4015 178.879 72.7822C178.252 72.073 177.51 71.6968 176.653 71.6536C175.805 71.6204 174.926 72.0056 174.017 72.8093L170.331 76.0684L169.285 74.8847Z" fill="white"/>
<path d="M181.933 92.8213C181.486 91.9417 181.274 91.0694 181.299 90.2046C181.329 89.3517 181.581 88.566 182.053 87.8475C182.543 87.1348 183.246 86.5459 184.162 86.081L184.393 85.9632C185.297 85.5043 186.181 85.287 187.046 85.3114C187.917 85.3476 188.705 85.6049 189.412 86.0835C190.125 86.5739 190.705 87.2589 191.151 88.1386C191.598 89.0183 191.806 89.8846 191.776 90.7375C191.752 91.6023 191.494 92.391 191.004 93.1037C190.52 93.8283 189.826 94.42 188.922 94.879L188.69 94.9967C187.775 95.4617 186.882 95.676 186.011 95.6398C185.158 95.6094 184.375 95.3491 183.663 94.8587C182.956 94.3801 182.379 93.701 181.933 92.8213ZM183.199 92.1783C183.67 93.1055 184.335 93.6946 185.195 93.9455C186.074 94.2023 187.012 94.0771 188.011 93.5699L188.171 93.4884C189.17 92.9812 189.818 92.3003 190.117 91.4457C190.434 90.5969 190.356 89.7089 189.885 88.7817C189.42 87.8663 188.749 87.2803 187.871 87.0235C187.004 86.7606 186.072 86.8828 185.073 87.39L184.913 87.4716C183.914 87.9788 183.26 88.6627 182.949 89.5233C182.65 90.3779 182.734 91.2629 183.199 92.1783Z" fill="white"/>
<path d="M189.601 116.534L199.312 114.257L199.364 115.856L190.701 117.759L190.71 118.039L199.495 119.894L199.58 122.513L190.934 124.935L190.944 125.215L199.712 126.551L199.764 128.15L189.925 126.509L189.837 123.81L198.483 121.368L198.474 121.108L189.689 119.232L189.601 116.534Z" fill="white"/>
<path d="M187.487 140.92C187.724 139.962 188.133 139.17 188.714 138.545C189.307 137.923 190.023 137.502 190.86 137.284C191.697 137.065 192.601 137.076 193.572 137.316L193.804 137.374C194.788 137.618 195.599 138.031 196.238 138.615C196.876 139.199 197.308 139.897 197.533 140.708C197.77 141.522 197.776 142.389 197.548 143.308C197.327 144.201 196.937 144.942 196.379 145.532C195.834 146.125 195.158 146.528 194.35 146.74C193.542 146.952 192.659 146.939 191.701 146.702L191.002 146.529L192.92 138.783C191.888 138.569 191.004 138.7 190.268 139.177C189.544 139.657 189.067 140.363 188.837 141.295C188.635 142.11 188.667 142.785 188.933 143.318C189.2 143.851 189.563 144.298 190.023 144.659L189.055 145.82C188.702 145.527 188.368 145.156 188.054 144.707C187.736 144.271 187.51 143.741 187.376 143.117C187.239 142.507 187.276 141.774 187.487 140.92ZM194.177 139.115L192.649 145.288C193.541 145.454 194.303 145.32 194.932 144.885C195.559 144.464 195.978 143.826 196.189 142.971C196.404 142.104 196.334 141.331 195.98 140.653C195.626 139.975 195.025 139.462 194.177 139.115Z" fill="white"/>
<path d="M176.808 164.134C177.213 163.587 177.678 163.161 178.205 162.854C178.731 162.547 179.271 162.4 179.826 162.413C180.381 162.426 180.921 162.627 181.446 163.016C181.981 163.413 182.325 163.867 182.477 164.378C182.64 164.897 182.641 165.445 182.479 166.022C182.327 166.607 182.045 167.178 181.632 167.735L179.667 170.386L180.245 170.814C180.802 171.227 181.365 171.387 181.932 171.293C182.492 171.21 183.01 170.847 183.486 170.204C183.955 169.572 184.164 168.964 184.116 168.381C184.078 167.805 183.85 167.262 183.431 166.752L184.698 165.849C185.041 166.303 185.287 166.801 185.434 167.341C185.592 167.89 185.607 168.474 185.48 169.093C185.355 169.731 185.051 170.377 184.567 171.03C183.82 172.037 182.978 172.624 182.041 172.792C181.114 172.968 180.179 172.707 179.236 172.008L175.685 169.376C175.364 169.138 175.092 169.169 174.87 169.469L174.334 170.192L173.257 169.394L174.079 168.285C174.341 167.932 174.648 167.719 175 167.648C175.362 167.585 175.709 167.676 176.041 167.922L176.121 167.982L176.264 167.789C176.148 167.52 176.053 167.201 175.979 166.83C175.908 166.479 175.929 166.08 176.044 165.634C176.148 165.18 176.403 164.68 176.808 164.134ZM177.793 165.088C177.237 165.838 177.008 166.606 177.106 167.392C177.207 168.197 177.659 168.897 178.462 169.493L178.639 169.624L180.568 167.021C180.941 166.517 181.138 166.016 181.16 165.517C181.184 165.037 180.976 164.634 180.537 164.309C180.098 163.983 179.632 163.895 179.139 164.045C178.639 164.205 178.19 164.553 177.793 165.088Z" fill="white"/>
<path d="M168.114 174.571L174.571 181.915L173.415 182.932L172.622 182.031L172.412 182.216C172.564 182.651 172.57 183.062 172.432 183.45C172.294 183.838 172.004 184.226 171.564 184.613L170.693 185.379L169.742 184.298L170.688 183.466C171.219 182.999 171.517 182.47 171.584 181.879C171.649 181.307 171.408 180.711 170.862 180.09L166.927 175.614L168.114 174.571Z" fill="white"/>
<path d="M154.182 184.363C155.043 183.882 155.9 183.639 156.754 183.636C157.614 183.644 158.409 183.879 159.141 184.341C159.872 184.803 160.482 185.47 160.97 186.343L161.087 186.553C161.581 187.438 161.833 188.312 161.843 189.177C161.853 190.043 161.639 190.834 161.2 191.553C160.768 192.283 160.139 192.879 159.312 193.341C158.509 193.789 157.702 194.012 156.89 194.007C156.084 194.014 155.328 193.795 154.621 193.35C153.914 192.905 153.32 192.252 152.839 191.391L152.488 190.762L159.454 186.87C158.905 185.97 158.205 185.414 157.354 185.202C156.509 185.002 155.668 185.136 154.829 185.605C154.096 186.014 153.626 186.499 153.419 187.057C153.212 187.616 153.133 188.187 153.184 188.769L151.675 188.856C151.648 188.398 151.691 187.901 151.803 187.364C151.904 186.834 152.137 186.307 152.501 185.783C152.853 185.266 153.413 184.792 154.182 184.363ZM160.071 188.014L154.519 191.116C155.007 191.882 155.626 192.346 156.373 192.509C157.109 192.678 157.861 192.548 158.63 192.119C159.409 191.683 159.926 191.104 160.179 190.382C160.433 189.66 160.396 188.871 160.071 188.014Z" fill="white"/>
<defs>
<filter id="filter0_b_12_400" x="-11.5" y="-12" width="264" height="264" filterUnits="userSpaceOnUse" color-interpolation-filters="sRGB">
<feFlood flood-opacity="0" result="BackgroundImageFix"/>
<feGaussianBlur in="BackgroundImageFix" stdDeviation="6"/>
<feComposite in2="SourceAlpha" operator="in" result="effect1_backgroundBlur_12_400"/>
<feBlend mode="normal" in="SourceGraphic" in2="effect1_backgroundBlur_12_400" result="shape"/>
</filter>
<filter id="filter1_b_12_400" x="55.5" y="55" width="130" height="130" filterUnits="userSpaceOnUse" color-interpolation-filters="sRGB">
<feFlood flood-opacity="0" result="BackgroundImageFix"/>
<feGaussianBlur in="BackgroundImageFix" stdDeviation="7.5"/>
<feComposite in2="SourceAlpha" operator="in" result="effect1_backgroundBlur_12_400"/>
<feBlend mode="normal" in="SourceGraphic" in2="effect1_backgroundBlur_12_400" result="shape"/>
</filter>
<linearGradient id="paint0_linear_12_400" x1="145.337" y1="566.214" x2="403.689" y2="478.015" gradientUnits="userSpaceOnUse">
<stop stop-color="#6CFFE7" stop-opacity="0.2"/>
<stop offset="0.15625" stop-color="white" stop-opacity="0.08"/>
<stop offset="1" stop-color="white" stop-opacity="0.05"/>
</linearGradient>
</defs>
</svg>
