<svg width="30" height="30" viewBox="0 0 30 30" fill="none" xmlns="http://www.w3.org/2000/svg">
<path d="M26.8694 21.2483C26.7888 21.1878 23.1612 18.4671 23.0604 18.4067C22.3954 18.0439 21.5691 18.1044 20.9444 18.5679L19.0701 20.0189C18.6066 19.8376 18.1229 19.6159 17.6594 19.3539C16.1681 18.5679 15.0395 17.7819 13.8505 16.5929C12.6614 15.4039 11.4119 13.8118 10.626 12.3204C10.3841 11.8368 10.1624 11.3732 9.96091 10.9097L11.4119 9.03549C11.8755 8.41074 11.9158 7.58446 11.5732 6.91941C11.5329 6.81864 8.81219 3.19108 8.75173 3.13062C7.9053 2.22373 6.43412 2.30435 5.68845 3.312L3.81421 5.62961C0.347877 9.74085 4.51957 14.7993 7.34101 17.8626C7.72392 18.2858 8.71142 19.2934 9.71908 20.2809C10.7267 21.2886 11.7142 22.2761 12.1374 22.659C15.2007 25.4804 20.2592 29.6521 24.3704 26.1858L26.688 24.3115C27.6957 23.5659 27.7763 22.0947 26.8694 21.2483Z" fill="white"/>
</svg>
