<svg width="56" height="56" viewBox="0 0 56 56" fill="none" xmlns="http://www.w3.org/2000/svg">
<g filter="url(#filter0_i_12_365)">
<circle cx="28" cy="28" r="28" fill="#0A0019"/>
</g>
<circle cx="28" cy="28" r="27.5" stroke="#FFD500"/>
<path d="M19 28H20M28 19V20M36 28H37M21.6 21.6L22.3 22.3M34.4 21.6L33.7 22.3M25.7 33H30.3M25 32C24.1605 31.3704 23.5403 30.4925 23.2274 29.4908C22.9145 28.4892 22.9247 27.4144 23.2566 26.4189C23.5884 25.4233 24.2251 24.5574 25.0764 23.9438C25.9278 23.3302 26.9506 23 28 23C29.0494 23 30.0722 23.3302 30.9236 23.9438C31.7749 24.5574 32.4116 25.4233 32.7434 26.4189C33.0753 27.4144 33.0855 28.4892 32.7726 29.4908C32.4597 30.4925 31.8395 31.3704 31 32C30.6096 32.3865 30.3156 32.8594 30.1419 33.3806C29.9681 33.9018 29.9195 34.4566 30 35C30 35.5304 29.7893 36.0391 29.4142 36.4142C29.0391 36.7893 28.5304 37 28 37C27.4696 37 26.9609 36.7893 26.5858 36.4142C26.2107 36.0391 26 35.5304 26 35C26.0805 34.4566 26.0319 33.9018 25.8581 33.3806C25.6844 32.8594 25.3904 32.3865 25 32Z" stroke="#FFD500" stroke-width="1.5" stroke-linecap="round" stroke-linejoin="round"/>
<defs>
<filter id="filter0_i_12_365" x="0" y="0" width="56" height="56" filterUnits="userSpaceOnUse" color-interpolation-filters="sRGB">
<feFlood flood-opacity="0" result="BackgroundImageFix"/>
<feBlend mode="normal" in="SourceGraphic" in2="BackgroundImageFix" result="shape"/>
<feColorMatrix in="SourceAlpha" type="matrix" values="0 0 0 0 0 0 0 0 0 0 0 0 0 0 0 0 0 0 127 0" result="hardAlpha"/>
<feMorphology radius="6" operator="erode" in="SourceAlpha" result="effect1_innerShadow_12_365"/>
<feOffset/>
<feGaussianBlur stdDeviation="7.5"/>
<feComposite in2="hardAlpha" operator="arithmetic" k2="-1" k3="1"/>
<feColorMatrix type="matrix" values="0 0 0 0 1 0 0 0 0 0.835294 0 0 0 0 0 0 0 0 0.8 0"/>
<feBlend mode="normal" in2="shape" result="effect1_innerShadow_12_365"/>
</filter>
</defs>
</svg>
