<svg width="40" height="40" viewBox="0 0 40 40" fill="none" xmlns="http://www.w3.org/2000/svg">
<circle cx="20" cy="20" r="20" fill="url(#paint0_radial_16_99)"/>
<circle cx="20" cy="20" r="20" fill="url(#paint1_radial_16_99)"/>
<path d="M19.9206 13.8359C16.2169 13.8359 13.1481 16.8518 13.1481 20.6084C13.1481 24.365 16.164 27.3809 19.9206 27.3809C23.6772 27.3809 26.6931 24.3121 26.6931 20.6084C26.6931 16.9047 23.6243 13.8359 19.9206 13.8359ZM19.9206 24.947C17.5397 24.947 15.582 22.9894 15.582 20.6084C15.582 18.2275 17.5397 16.2698 19.9206 16.2698C22.3016 16.2698 24.2592 18.2275 24.2592 20.6084C24.2592 22.9894 22.3016 24.947 19.9206 24.947Z" fill="white"/>
<path d="M26.9577 15.2114C27.8051 15.2114 28.4921 14.5244 28.4921 13.677C28.4921 12.8295 27.8051 12.1426 26.9577 12.1426C26.1103 12.1426 25.4233 12.8295 25.4233 13.677C25.4233 14.5244 26.1103 15.2114 26.9577 15.2114Z" fill="white"/>
<path d="M30.9259 9.70886C29.5503 8.28029 27.5926 7.53955 25.3704 7.53955H14.4709C9.86773 7.53955 6.79895 10.6083 6.79895 15.2115V26.0581C6.79895 28.3332 7.53969 30.2909 9.02117 31.7194C10.4497 33.0951 12.3545 33.7829 14.5238 33.7829H25.3175C27.5926 33.7829 29.4974 33.0422 30.873 31.7194C32.3016 30.3438 33.0423 28.3861 33.0423 26.111V15.2115C33.0423 12.9893 32.3016 11.0845 30.9259 9.70886ZM30.7143 26.111C30.7143 27.7512 30.1323 29.0739 29.1799 29.9734C28.2275 30.8729 26.9048 31.3491 25.3175 31.3491H14.5238C12.9365 31.3491 11.6138 30.8729 10.6614 29.9734C9.709 29.021 9.23281 27.6983 9.23281 26.0581V15.2115C9.23281 13.6242 9.709 12.3015 10.6614 11.3491C11.5609 10.4496 12.9365 9.97341 14.5238 9.97341H25.4233C27.0106 9.97341 28.3333 10.4496 29.2857 11.402C30.1852 12.3544 30.7143 13.6771 30.7143 15.2115V26.111Z" fill="white"/>
<defs>
<radialGradient id="paint0_radial_16_99" cx="0" cy="0" r="1" gradientUnits="userSpaceOnUse" gradientTransform="translate(10.6251 43.0808) rotate(-90) scale(39.643 36.8711)">
<stop stop-color="#FFDD55"/>
<stop offset="0.1" stop-color="#FFDD55"/>
<stop offset="0.5" stop-color="#FF543E"/>
<stop offset="1" stop-color="#C837AB"/>
</radialGradient>
<radialGradient id="paint1_radial_16_99" cx="0" cy="0" r="1" gradientUnits="userSpaceOnUse" gradientTransform="translate(-6.70021 2.88153) rotate(78.6806) scale(17.7206 73.0449)">
<stop stop-color="#3771C8"/>
<stop offset="0.128" stop-color="#3771C8"/>
<stop offset="1" stop-color="#6600FF" stop-opacity="0"/>
</radialGradient>
</defs>
</svg>
