<svg width="678" height="413" viewBox="0 0 678 413" fill="none" xmlns="http://www.w3.org/2000/svg">
<g filter="url(#filter0_b_12_193)">
<path d="M0 14.737V146.541C0 154.646 5.72018 161.278 12.7115 161.278H29.6337C36.625 161.278 42.3452 167.91 42.3452 176.015V235.792V324.214V397.777C42.3452 405.882 48.0654 412.514 55.0567 412.514H326.288C333.28 412.514 339 405.882 339 397.777V338.951C339 330.846 344.72 324.214 351.711 324.214H546.674C553.666 324.214 559.386 317.582 559.386 309.477V250.529C559.386 242.424 565.106 235.792 572.097 235.792H639.865C646.857 235.792 652.577 229.16 652.577 221.055V162.567C652.577 154.462 658.297 147.83 665.288 147.83C672.28 147.83 678 141.199 678 133.093V14.737C678 6.63165 672.28 0 665.288 0H12.7115C5.72018 0 0 6.63165 0 14.737Z" fill="rgba(60, 62, 72, 0.3)" fill-opacity="0.3"/>
<path d="M0.5 146.541V14.737C0.5 6.83585 6.06315 0.5 12.7115 0.5H665.288C671.937 0.5 677.5 6.83585 677.5 14.737V133.093C677.5 140.995 671.937 147.33 665.288 147.33C657.954 147.33 652.077 154.258 652.077 162.567V221.055C652.077 228.956 646.514 235.292 639.865 235.292H572.097C564.763 235.292 558.886 242.219 558.886 250.529V309.477C558.886 317.378 553.323 323.714 546.674 323.714H351.711C344.377 323.714 338.5 330.641 338.5 338.951V397.777C338.5 405.678 332.937 412.014 326.288 412.014H55.0567C48.4084 412.014 42.8452 405.678 42.8452 397.777V324.214V235.792V176.015C42.8452 167.705 36.968 160.778 29.6337 160.778H12.7115C6.06315 160.778 0.5 154.442 0.5 146.541Z" stroke="rgba(54, 59, 76, 0.8)" stroke-opacity="0.8"/>
</g>
<defs>
<filter id="filter0_b_12_193" x="-5.5" y="-5.5" width="689" height="423.514" filterUnits="userSpaceOnUse" color-interpolation-filters="sRGB">
<feFlood flood-opacity="0" result="BackgroundImageFix"/>
<feGaussianBlur in="BackgroundImageFix" stdDeviation="2.75"/>
<feComposite in2="SourceAlpha" operator="in" result="effect1_backgroundBlur_12_193"/>
<feBlend mode="normal" in="SourceGraphic" in2="effect1_backgroundBlur_12_193" result="shape"/>
</filter>
</defs>
</svg>
