<svg width="1366" height="512" viewBox="0 0 1366 512" fill="none" xmlns="http://www.w3.org/2000/svg">
<path d="M0 361.5H435V113.5H1366" stroke="url(#paint0_linear_20_664)" stroke-width="0.5"/>
<path d="M435 361.5H609" stroke="url(#paint1_linear_20_664)" stroke-width="0.5"/>
<path d="M529 362V179H1365" stroke="url(#paint2_linear_20_664)" stroke-width="0.5"/>
<path d="M475 362V511H1365" stroke="url(#paint3_linear_20_664)"/>
<path d="M346 362V1H1365" stroke="url(#paint4_linear_20_664)" stroke-width="0.5"/>
<line y1="-0.5" x2="108" y2="-0.5" transform="matrix(1 -8.74228e-08 -8.74228e-08 -1 899.5 1)" stroke="url(#paint5_linear_20_664)" stroke-opacity="0.5"/>
<line y1="-0.5" x2="108" y2="-0.5" transform="matrix(1 -8.74228e-08 -8.74228e-08 -1 720 114)" stroke="url(#paint6_linear_20_664)" stroke-opacity="0.5"/>
<line y1="-0.5" x2="108" y2="-0.5" transform="matrix(-4.37114e-08 1 1 4.37114e-08 529 204)" stroke="url(#paint7_linear_20_664)" stroke-opacity="0.5"/>
<path fill-rule="evenodd" clip-rule="evenodd" d="M1007 511L900 511L900 512L1007 512L1007 511Z" fill="url(#paint8_linear_20_664)" fill-opacity="0.5"/>
<line x1="110" y1="361.5" x2="218" y2="361.5" stroke="url(#paint9_linear_20_664)" stroke-opacity="0.5"/>
<defs>
<linearGradient id="paint0_linear_20_664" x1="522.5" y1="113.5" x2="264.764" y2="139.866" gradientUnits="userSpaceOnUse">
<stop stop-color="white" stop-opacity="0.15"/>
<stop offset="0.998048" stop-color="white" stop-opacity="0.2"/>
</linearGradient>
<linearGradient id="paint1_linear_20_664" x1="609" y1="361.5" x2="608.462" y2="371.737" gradientUnits="userSpaceOnUse">
<stop stop-color="#BEBEBE" stop-opacity="0.4"/>
<stop offset="0.998048" stop-color="#888888" stop-opacity="0.5"/>
</linearGradient>
<linearGradient id="paint2_linear_20_664" x1="1365" y1="179" x2="613.97" y2="554.186" gradientUnits="userSpaceOnUse">
<stop stop-color="white" stop-opacity="0.15"/>
<stop offset="0.998048" stop-color="white" stop-opacity="0.2"/>
</linearGradient>
<linearGradient id="paint3_linear_20_664" x1="1365" y1="511" x2="664.707" y2="53.5773" gradientUnits="userSpaceOnUse">
<stop stop-color="white" stop-opacity="0.15"/>
<stop offset="0.998048" stop-color="white" stop-opacity="0.2"/>
</linearGradient>
<linearGradient id="paint4_linear_20_664" x1="1365" y1="0.999926" x2="320.622" y2="323.373" gradientUnits="userSpaceOnUse">
<stop stop-color="white" stop-opacity="0.15"/>
<stop offset="0.998048" stop-color="white" stop-opacity="0.2"/>
</linearGradient>
<linearGradient id="paint5_linear_20_664" x1="0.843747" y1="-0.499969" x2="108" y2="-0.499969" gradientUnits="userSpaceOnUse">
<stop stop-color="white" stop-opacity="0"/>
<stop offset="1" stop-color="white"/>
</linearGradient>
<linearGradient id="paint6_linear_20_664" x1="0.843747" y1="-0.499969" x2="108" y2="-0.499969" gradientUnits="userSpaceOnUse">
<stop stop-color="white" stop-opacity="0"/>
<stop offset="1" stop-color="white"/>
</linearGradient>
<linearGradient id="paint7_linear_20_664" x1="0.843747" y1="-0.499969" x2="108" y2="-0.499969" gradientUnits="userSpaceOnUse">
<stop stop-color="white" stop-opacity="0"/>
<stop offset="1" stop-color="white"/>
</linearGradient>
<linearGradient id="paint8_linear_20_664" x1="900.836" y1="511.5" x2="1007" y2="511.5" gradientUnits="userSpaceOnUse">
<stop stop-color="white" stop-opacity="0"/>
<stop offset="1" stop-color="white"/>
</linearGradient>
<linearGradient id="paint9_linear_20_664" x1="110.844" y1="361.5" x2="218" y2="361.5" gradientUnits="userSpaceOnUse">
<stop stop-color="white" stop-opacity="0"/>
<stop offset="1" stop-color="white"/>
</linearGradient>
</defs>
</svg>
