<svg width="375" height="602" viewBox="0 0 375 602" fill="none" xmlns="http://www.w3.org/2000/svg">
<path d="M-495 451.5H-60V203.5H871" stroke="url(#paint0_linear_20_797)" stroke-width="0.5"/>
<path d="M-60 451.5H114" stroke="url(#paint1_linear_20_797)" stroke-width="0.5"/>
<path d="M34 452V269H870" stroke="url(#paint2_linear_20_797)" stroke-width="0.5"/>
<path d="M-20 452V601H870" stroke="url(#paint3_linear_20_797)"/>
<path d="M0 134V1H375" stroke="url(#paint4_linear_20_797)" stroke-width="0.5"/>
<line y1="-0.5" x2="108" y2="-0.5" transform="matrix(1 -8.74228e-08 -8.74228e-08 -1 225 204)" stroke="url(#paint5_linear_20_797)" stroke-opacity="0.5"/>
<line y1="-0.5" x2="108" y2="-0.5" transform="matrix(-4.37114e-08 1 1 4.37114e-08 34 294)" stroke="url(#paint6_linear_20_797)" stroke-opacity="0.5"/>
<defs>
<linearGradient id="paint0_linear_20_797" x1="27.4999" y1="203.5" x2="-230.236" y2="229.866" gradientUnits="userSpaceOnUse">
<stop stop-color="white" stop-opacity="0.15"/>
<stop offset="0.998048" stop-color="white" stop-opacity="0.2"/>
</linearGradient>
<linearGradient id="paint1_linear_20_797" x1="114" y1="451.5" x2="113.462" y2="461.737" gradientUnits="userSpaceOnUse">
<stop stop-color="#BEBEBE" stop-opacity="0.4"/>
<stop offset="0.998048" stop-color="#888888" stop-opacity="0.5"/>
</linearGradient>
<linearGradient id="paint2_linear_20_797" x1="870" y1="269" x2="118.97" y2="644.186" gradientUnits="userSpaceOnUse">
<stop stop-color="white" stop-opacity="0.15"/>
<stop offset="0.998048" stop-color="white" stop-opacity="0.2"/>
</linearGradient>
<linearGradient id="paint3_linear_20_797" x1="870" y1="601" x2="169.707" y2="143.577" gradientUnits="userSpaceOnUse">
<stop stop-color="white" stop-opacity="0.15"/>
<stop offset="0.998048" stop-color="white" stop-opacity="0.2"/>
</linearGradient>
<linearGradient id="paint4_linear_20_797" x1="375" y1="0.999973" x2="-9.41414" y2="119.526" gradientUnits="userSpaceOnUse">
<stop stop-color="white" stop-opacity="0.15"/>
<stop offset="0.998048" stop-color="white" stop-opacity="0.2"/>
</linearGradient>
<linearGradient id="paint5_linear_20_797" x1="0.843747" y1="-0.499969" x2="108" y2="-0.499969" gradientUnits="userSpaceOnUse">
<stop stop-color="white" stop-opacity="0"/>
<stop offset="1" stop-color="white"/>
</linearGradient>
<linearGradient id="paint6_linear_20_797" x1="0.843747" y1="-0.499969" x2="108" y2="-0.499969" gradientUnits="userSpaceOnUse">
<stop stop-color="white" stop-opacity="0"/>
<stop offset="1" stop-color="white"/>
</linearGradient>
</defs>
</svg>
