<svg width="77" height="77" viewBox="0 0 77 77" fill="none" xmlns="http://www.w3.org/2000/svg">
<g clip-path="url(#clip0_8_116)">
<path d="M21.3291 67.9916L18.7481 71.6736L17.5652 70.8514L20.0745 67.2052C20.648 66.3473 20.5405 65.7753 19.716 65.2391C18.9274 64.7029 18.3538 64.7744 17.7444 65.5966L15.1993 69.2071L14.0163 68.3849L16.5973 64.7029C17.6369 63.2372 19.1425 63.2372 20.4688 64.1667C21.831 65.0961 22.3329 66.526 21.3291 67.9916Z" fill="#0B0F22"/>
<path d="M12.4032 66.8477L11.3636 65.8468L16.2388 60.7349L17.2784 61.7359L12.4032 66.8477Z" fill="#0B0F22"/>
<path d="M8.28076 63.13L7.38458 62.0933L15.9879 58.6258L16.8841 59.6625L8.28076 63.13Z" fill="#0B0F22"/>
<path d="M10.575 58.1968L6.70346 60.4847L5.95066 59.2335L9.75048 56.9814C10.6467 56.4452 10.7542 55.8732 10.2523 55.0511C9.75048 54.2289 9.21277 54.0501 8.31658 54.5863L4.51677 56.8384L3.76398 55.5873L7.63548 53.2994C9.17692 52.4057 10.5391 53.0134 11.3636 54.4076C12.2239 55.766 12.1164 57.2674 10.575 58.1968Z" fill="#0B0F22"/>
<path d="M5.26955 50.7256L2.86778 53.5497L2.33008 51.9768L3.26211 50.9043C3.51304 50.6184 3.97905 50.1894 4.0149 50.1537C3.97905 50.1537 3.36965 50.1537 2.97533 50.0822L1.61313 49.8319L1.11127 48.3663L4.73184 49.117L7.63548 45.6495L8.17318 47.2224L6.73929 48.8667C6.48836 49.1885 6.02235 49.6174 5.95065 49.6532C5.9865 49.6532 6.63175 49.6532 7.02607 49.7604L9.17691 50.1894L9.67877 51.6193L5.26955 50.7256Z" fill="#0B0F22"/>
<path d="M0.107561 43.2902L1.86711e-05 41.1096C-0.107523 38.929 1.25467 37.3203 3.33382 37.2131C5.41296 37.1059 6.95439 38.5715 7.06194 40.7521L7.16948 42.9327L0.107561 43.2902ZM5.80728 40.8951C5.73559 39.3222 4.76771 38.6787 3.44136 38.7145C2.11501 38.786 1.21883 39.5367 1.29052 41.1096L1.32637 41.753L5.84313 41.5385L5.80728 40.8951Z" fill="#0B0F22"/>
<path d="M0 35.1755L0.681099 30.5641L1.93575 30.7428L1.46974 33.9243L3.08287 34.1745L3.51304 31.3862L4.73184 31.565L4.30168 34.3533L5.9148 34.6035L6.41667 31.279L7.67132 31.4577L6.95438 36.2122L0 35.1755Z" fill="#0B0F22"/>
<path d="M6.4884 30.5283L6.20162 29.2057C6.77518 29.0627 7.27704 28.8124 7.49212 28.1332C7.67136 27.5613 7.52797 27.0966 7.13365 26.9536C6.66764 26.8106 6.38086 27.0966 5.87899 27.6328L5.62806 27.9187C4.87527 28.7767 4.12248 29.2414 2.97536 28.8839C1.93579 28.5265 1.43393 27.4898 1.82825 26.2744C2.11503 25.4164 2.65274 24.8802 3.58477 24.7015L3.90739 25.9884C3.40553 26.0956 3.1546 26.2744 3.01121 26.6676C2.86782 27.0608 3.04706 27.4183 3.36968 27.5255C3.79985 27.6685 4.05078 27.454 4.48095 26.9536L4.73188 26.6676C5.62806 25.6667 6.38086 25.1662 7.52797 25.5594C8.78263 25.9884 9.10525 27.1681 8.67508 28.4907C8.28076 29.7776 7.42043 30.4211 6.4884 30.5283Z" fill="#0B0F22"/>
<path d="M3.51306 22.3064L4.15831 21.0195L10.5033 24.1295L9.85803 25.3807L3.51306 22.3064Z" fill="#0B0F22"/>
<path d="M7.92229 21.1267C6.20162 19.9113 5.8073 17.838 7.06196 16.1221C7.74306 15.1927 8.46 14.6922 9.35618 14.585L9.57127 15.9434C9.06941 16.0149 8.60339 16.1936 8.13738 16.8728C7.38458 17.9095 7.74306 19.1606 8.81847 19.9113C9.89389 20.662 11.2202 20.5548 12.0806 19.3394C12.3315 18.9819 12.6183 18.4457 12.6541 18.0525L11.7221 17.409L10.7542 18.8032L9.67881 18.0525L11.4353 15.5859L14.0163 17.409C14.0522 17.9452 13.8729 19.0534 13.1201 20.0901C11.7938 21.9489 9.64296 22.3064 7.92229 21.1267Z" fill="#0B0F22"/>
<path d="M14.6616 13.2623C14.1597 13.2623 13.4069 13.1193 13.4069 13.1193C13.4069 13.1193 14.0163 13.6198 14.339 14.013L16.3106 16.1936L15.3068 17.0873L10.5033 11.8324L10.6108 11.7252L15.4861 11.8324C15.9521 11.8324 16.7407 12.0111 16.7407 12.0111C16.7407 12.0111 16.1313 11.4749 15.8087 11.1175L13.8371 8.93687L14.8408 8.04318L19.6085 13.3338L19.501 13.441L14.6616 13.2623Z" fill="#0B0F22"/>
<path d="M21.2216 5.5766L19.4293 6.47028L18.8557 5.32636L23.7668 2.89554L24.3404 4.03946L22.548 4.93314L25.0931 10.0808L23.8026 10.7242L21.2216 5.5766Z" fill="#0B0F22"/>
<path d="M27.1006 1.71586L27.244 1.68011L32.406 7.5427L30.9362 7.97166L30.291 7.18522L27.6741 7.97166L27.5666 9.00834L26.2402 9.40156L27.1006 1.71586ZM29.4306 6.18429L28.6779 5.29061C28.3552 4.89739 27.9609 4.28968 27.8892 4.21818C27.8892 4.25393 27.8892 5.00463 27.8534 5.54084L27.7458 6.68476L29.4306 6.18429Z" fill="#0B0F22"/>
<path d="M32.2267 6.22006L33.338 5.39787C33.6965 5.86258 34.1625 6.18431 34.8436 6.11282C35.453 6.04132 35.7756 5.71959 35.7398 5.29062C35.6681 4.79016 35.2737 4.64717 34.5926 4.43269L34.1983 4.32544C33.1229 4.00372 32.3701 3.50325 32.2267 2.32359C32.1192 1.25116 32.8361 0.32173 34.1266 0.17874C35.0587 0.0714974 35.7398 0.321729 36.3133 1.10817L35.2737 1.96611C34.987 1.53714 34.7002 1.39415 34.27 1.46565C33.8398 1.5014 33.6248 1.82312 33.6606 2.14485C33.6965 2.57382 33.9832 2.71681 34.6285 2.93129L35.0228 3.03854C36.3133 3.43176 37.0661 3.89647 37.1736 5.11189C37.317 6.3988 36.385 7.22099 34.987 7.36398C33.6965 7.54271 32.7286 7.0065 32.2267 6.22006Z" fill="#0B0F22"/>
<path d="M38.7509 0L40.1848 0.107242L40.0056 2.43083C39.9697 2.7883 39.898 3.25302 39.8263 3.61049C40.0056 3.25302 40.2565 2.8598 40.5433 2.57382L42.6224 0.321727L44.2714 0.428969L41.6546 3.32451L44.0205 7.47122L42.264 7.32823L40.615 4.32544L39.8622 5.07614L39.7188 7.11374L38.2849 7.0065L38.7509 0Z" fill="#0B0F22"/>
<path d="M44.2714 6.14856L45.5978 5.79108C45.777 6.36304 46.0638 6.82776 46.7449 7.0065C47.3184 7.14949 47.7845 6.97075 47.892 6.57753C48.0354 6.11281 47.6769 5.82683 47.1034 5.36211L46.7807 5.11188C45.8846 4.39693 45.3468 3.68198 45.6336 2.53807C45.9204 1.50139 46.9241 0.893683 48.1788 1.21541C49.075 1.46564 49.6485 1.93036 49.8994 2.85979L48.6089 3.28876C48.4656 2.7883 48.2505 2.53807 47.8562 2.46657C47.4618 2.35933 47.1034 2.53807 47.0317 2.89554C46.9241 3.32451 47.1392 3.53899 47.6769 3.96796L47.9995 4.2182C49.075 5.04039 49.6127 5.75534 49.29 6.89925C48.9674 8.15041 47.7845 8.57938 46.4581 8.25766C45.1318 7.90018 44.4507 7.07799 44.2714 6.14856Z" fill="#0B0F22"/>
<path d="M56.9256 9.86631L59.6858 6.29156L60.8329 7.18525L58.1444 10.6885C57.4991 11.5107 57.6425 12.0827 58.3953 12.6904C59.1481 13.2623 59.7575 13.2266 60.3669 12.4044L63.0554 8.90113L64.2026 9.79481L61.4423 13.3696C60.3669 14.7995 58.8613 14.728 57.5708 13.727C56.3162 12.7261 55.8501 11.2962 56.9256 9.86631Z" fill="#0B0F22"/>
<path d="M65.7798 11.4034L66.7836 12.4401L61.6932 17.3375L60.6895 16.3008L65.7798 11.4034Z" fill="#0B0F22"/>
<path d="M69.723 15.2999L70.5475 16.3723L61.7649 19.4823L60.9404 18.4099L69.723 15.2999Z" fill="#0B0F22"/>
<path d="M67.2137 20.1258L71.1928 18.0167L71.8738 19.3036L67.9665 21.377C67.0703 21.8417 66.9269 22.4494 67.3571 23.2716C67.8231 24.1295 68.3608 24.3083 69.257 23.8436L73.1644 21.7702L73.8454 23.0571L69.9022 25.1662C68.325 25.9884 66.9986 25.3092 66.21 23.8793C65.4572 22.4494 65.6364 20.948 67.2137 20.1258Z" fill="#0B0F22"/>
<path d="M72.1965 27.8115L74.7058 25.0947L75.1718 26.6676L74.2039 27.7043C73.9171 27.9902 73.4511 28.3835 73.4153 28.4192C73.4511 28.4192 74.0605 28.4192 74.4548 28.5265L75.817 28.8482L76.2472 30.3138L72.6625 29.3844L69.6155 32.7089L69.1494 31.1003L70.655 29.4916C70.9418 29.2057 71.4078 28.7767 71.4795 28.7409C71.4437 28.7409 70.8343 28.7052 70.4041 28.5979L68.2891 28.0617L67.8589 26.5961L72.1965 27.8115Z" fill="#0B0F22"/>
<path d="M76.9642 35.39L77 37.5706C77.0359 39.7512 75.602 41.2883 73.5229 41.3241C71.4437 41.3598 69.974 39.8584 69.9381 37.6778L69.9023 35.4972L76.9642 35.39ZM71.2286 37.5706C71.2645 39.1435 72.1965 39.8227 73.5229 39.8227C74.8492 39.7869 75.7812 39.072 75.7454 37.4991V36.8556L71.2286 36.9271V37.5706Z" fill="#0B0F22"/>
<path d="M76.7491 43.6119L75.8529 48.1876L74.5983 47.9373L75.2077 44.7916L73.6304 44.4698L73.0927 47.2581L71.8739 47.0079L72.4116 44.2196L70.7985 43.8979L70.1532 47.1866L68.8986 46.9364L69.8306 42.2177L76.7491 43.6119Z" fill="#0B0F22"/>
<path d="M70.0815 47.9373L70.2966 49.2957C69.723 49.403 69.2212 49.6532 68.9344 50.2966C68.7193 50.8686 68.8627 51.3333 69.257 51.4763C69.723 51.655 70.0457 51.3691 70.5475 50.8329L70.8343 50.5469C71.6229 49.7247 72.4116 49.2957 73.5228 49.7247C74.5266 50.1179 75.0284 51.1903 74.5266 52.4057C74.2039 53.2637 73.6662 53.7641 72.6984 53.9071L72.4474 52.5845C72.9493 52.513 73.2002 52.3343 73.3795 51.941C73.5228 51.5478 73.3795 51.1903 73.0568 51.0831C72.6625 50.9401 72.3757 51.1188 71.9097 51.5836L71.6229 51.8695C70.6909 52.8347 69.9381 53.2637 68.791 52.8347C67.5722 52.37 67.2854 51.1546 67.7873 49.8677C68.2174 48.6165 69.1495 48.0088 70.0815 47.9373Z" fill="#0B0F22"/>
<path d="M72.6625 56.3022L71.9814 57.5891L65.7798 54.1931L66.4609 52.9062L72.6625 56.3022Z" fill="#0B0F22"/>
<path d="M68.1816 57.2674C69.8306 58.5543 70.1174 60.6277 68.8269 62.3078C68.1099 63.2015 67.3571 63.6662 66.4968 63.7377L66.3175 62.3793C66.8194 62.3078 67.2854 62.1648 67.7873 61.5214C68.5759 60.5204 68.2891 59.2693 67.2496 58.4471C66.21 57.6249 64.8837 57.6964 63.9875 58.8761C63.7007 59.2335 63.4139 59.734 63.3422 60.1272L64.2384 60.8422L65.278 59.4838L66.2817 60.2702L64.4176 62.6653L61.9083 60.7349C61.9083 60.1987 62.1234 59.1263 62.9121 58.0896C64.3818 56.2665 66.5326 56.0163 68.1816 57.2674Z" fill="#0B0F22"/>
<path d="M61.1197 64.8101C61.6215 64.8459 62.3743 65.0246 62.3743 65.0246C62.3743 65.0246 61.8008 64.4884 61.4781 64.0952L59.6141 61.8073L60.6537 60.9494L65.1704 66.4545L65.0629 66.5618L60.1876 66.24C59.7216 66.2043 58.933 66.0255 58.933 66.0255C58.933 66.0255 59.5065 66.5975 59.8292 66.955L61.6932 69.2428L60.6537 70.1008L56.1369 64.5956L56.2444 64.4884L61.1197 64.8101Z" fill="#0B0F22"/>
<path d="M54.2011 72.2098L56.0293 71.3877L56.5312 72.5673L51.5126 74.7837L51.0107 73.604L52.8389 72.7818L50.5089 67.4912L51.8352 66.9192L54.2011 72.2098Z" fill="#0B0F22"/>
<path d="M48.143 75.7846L48.0354 75.8203L43.1243 69.7075L44.5941 69.3143L45.2035 70.1365L47.8562 69.4573L47.9996 68.4206L49.3618 68.0631L48.143 75.7846ZM46.028 71.2447L46.7091 72.1741C47.0317 72.5673 47.3902 73.2108 47.426 73.2823C47.426 73.2465 47.4619 72.4958 47.5335 71.9596L47.7128 70.8157L46.028 71.2447Z" fill="#0B0F22"/>
<path d="M43.2677 71.0659L42.1206 71.8166C41.7622 71.3162 41.332 70.9944 40.615 71.0302C40.0056 71.0659 39.6472 71.3876 39.683 71.8166C39.7189 72.3171 40.1132 72.4601 40.7943 72.7103L41.1527 72.8533C42.2282 73.2465 42.9451 73.747 43.0527 74.9267C43.1243 75.9991 42.3357 76.8928 41.0452 76.9643C40.1132 77.0357 39.4321 76.7498 38.8944 75.9276L39.9698 75.1411C40.2566 75.5701 40.5433 75.7131 40.9377 75.7131C41.3678 75.6773 41.6188 75.3914 41.5829 75.0339C41.5471 74.6049 41.2603 74.4262 40.6509 74.2117L40.2924 74.0687C39.0378 73.604 38.285 73.1393 38.2133 71.9239C38.1416 70.637 39.1095 69.8505 40.5075 69.7433C41.8697 69.6718 42.7659 70.2437 43.2677 71.0659Z" fill="#0B0F22"/>
<path d="M36.4567 77L35.0228 76.8213L35.3096 74.4977C35.3455 74.1402 35.453 73.6755 35.5605 73.318C35.3455 73.6755 35.0945 74.033 34.8077 74.319L32.6569 76.4995L31.0079 76.3208L33.7682 73.5325L31.5815 69.2786L33.338 69.493L34.8794 72.5673L35.6681 71.8524L35.919 69.8148L37.3529 69.9935L36.4567 77Z" fill="#0B0F22"/>
<path d="M25.8539 70.7913C25.9138 70.607 26.1745 70.607 26.2343 70.7913L26.4229 71.3717C26.4497 71.4541 26.5265 71.5099 26.6131 71.5099L27.2235 71.5099C27.4172 71.5099 27.4978 71.7579 27.341 71.8717L26.8473 72.2305C26.7772 72.2814 26.7478 72.3717 26.7746 72.4541L26.9632 73.0345C27.0231 73.2188 26.8122 73.372 26.6554 73.2581L26.1617 72.8994C26.0916 72.8485 25.9967 72.8485 25.9266 72.8994L25.4328 73.2581C25.2761 73.372 25.0652 73.2188 25.125 73.0345L25.3136 72.4541C25.3404 72.3717 25.3111 72.2814 25.241 72.2305L24.7472 71.8717C24.5905 71.7579 24.671 71.5099 24.8648 71.5099L25.4751 71.5099C25.5617 71.5099 25.6385 71.4541 25.6653 71.3717L25.8539 70.7913Z" fill="#0B0F22"/>
<path d="M53.7853 5.11483C53.8452 4.93057 54.1059 4.93057 54.1657 5.11483L54.3543 5.69528C54.3811 5.77769 54.4579 5.83348 54.5445 5.83348L55.1549 5.83348C55.3486 5.83348 55.4292 6.0814 55.2724 6.19528L54.7787 6.55402C54.7086 6.60495 54.6792 6.69523 54.706 6.77763L54.8946 7.35809C54.9545 7.54235 54.7436 7.69557 54.5868 7.58169L54.0931 7.22295C54.023 7.17202 53.9281 7.17202 53.858 7.22295L53.3642 7.58169C53.2074 7.69557 52.9966 7.54235 53.0564 7.35809L53.245 6.77763C53.2718 6.69523 53.2425 6.60495 53.1724 6.55402L52.6786 6.19528C52.5219 6.0814 52.6024 5.83348 52.7962 5.83348L53.4065 5.83348C53.4931 5.83348 53.5699 5.77769 53.5967 5.69528L53.7853 5.11483Z" fill="#0B0F22"/>
<g clip-path="url(#clip1_8_116)">
<path d="M40.5506 27.6108V50.899H42.1553V54.3529H35.0533V50.899H36.6922V49.1208H18.1177V45.6669H19.7225V34.9974H18.1177V31.5434H36.6922V27.6108H32.3218V29.9362H28.8732V24.1569H48.3013V29.9362H44.8528V27.6108H40.5506ZM23.6832 45.6669H36.6922V34.9974H23.6832V45.6669ZM51.9889 31.5434C53.0474 31.5434 54.0376 31.7486 54.9595 32.159C55.8814 32.5694 56.6667 33.1165 57.3838 33.8005C58.0666 34.4844 58.613 35.3051 59.0227 36.2285C59.4324 37.1518 59.6373 38.1435 59.6373 39.1694V41.4948C59.6373 42.5549 59.4324 43.5466 59.0227 44.47C58.613 45.3933 58.0666 46.1798 57.3838 46.898C56.7009 47.5819 55.8814 48.1291 54.9595 48.5394C54.0376 48.9498 53.0474 49.155 51.9889 49.155H41.3359V45.6669H51.7158C52.2279 45.6669 52.7401 45.5643 53.2181 45.3591C53.6962 45.1539 54.1059 44.8803 54.4815 44.5042C54.8229 44.128 55.1302 43.7176 55.3351 43.2389C55.54 42.7601 55.6424 42.2471 55.6424 41.7V38.9984C55.6424 38.4513 55.54 37.9383 55.3351 37.4595C55.1302 36.9808 54.8571 36.5362 54.4815 36.1943C54.1059 35.8181 53.6962 35.5445 53.2181 35.3393C52.7401 35.1341 52.2621 35.0316 51.7158 35.0316H41.3359V31.5434H51.9889Z" fill="url(#paint0_linear_8_116)"/>
</g>
</g>
<defs>
<linearGradient id="paint0_linear_8_116" x1="18.1177" y1="39.2549" x2="59.6373" y2="39.2549" gradientUnits="userSpaceOnUse">
<stop stop-color="#FFB80C"/>
<stop offset="0.52" stop-color="#FBBBC3"/>
<stop offset="1" stop-color="#4691F9"/>
</linearGradient>
<clipPath id="clip0_8_116">
<rect width="77" height="77" fill="white"/>
</clipPath>
<clipPath id="clip1_8_116">
<rect width="41.5196" height="30.1961" fill="white" transform="translate(18.1177 24.1569)"/>
</clipPath>
</defs>
</svg>
