<svg width="32" height="52" viewBox="0 0 32 52" fill="none" xmlns="http://www.w3.org/2000/svg">
<g clip-path="url(#clip0_16_191)">
<mask id="mask0_16_191" style="mask-type:luminance" maskUnits="userSpaceOnUse" x="0" y="0" width="32" height="52">
<path d="M0 0H32V52H0V0Z" fill="white"/>
</mask>
<g mask="url(#mask0_16_191)">
<mask id="mask1_16_191" style="mask-type:luminance" maskUnits="userSpaceOnUse" x="0" y="0" width="31" height="53">
<path d="M0.445007 0.000976562H30.562V52.001H0.445007V0.000976562Z" fill="white"/>
</mask>
<g mask="url(#mask1_16_191)">
<path fill-rule="evenodd" clip-rule="evenodd" d="M6.50401 41.3029L7.56401 39.7399L4.83901 38.4299L3.77901 39.9949C1.42501 43.4709 2.56601 47.7549 6.32801 49.5609C7.52001 50.1339 8.88701 50.4079 10.292 50.3549L10.8 50.3349L10.92 47.4999L10.412 47.5199C9.59207 47.556 8.77564 47.3923 8.03301 47.0429C5.77601 45.9589 5.09201 43.3889 6.50401 41.3029ZM19.777 0.7959C19.197 0.3679 18.316 0.4019 17.697 0.8739C14.426 3.3719 12.557 6.2559 12.42 9.4909C12.284 12.7249 13.916 15.4779 16.986 17.7369C17.566 18.1639 18.448 18.1309 19.066 17.6579C22.336 15.1599 24.206 12.2759 24.343 9.0409C24.479 5.8069 22.847 3.0539 19.777 0.7959ZM18.61 3.8489C20.44 5.4989 21.211 7.2669 21.131 9.1619C21.051 11.0569 20.128 12.8899 18.153 14.6829C16.323 13.0329 15.552 11.2649 15.632 9.3699C15.712 7.4749 16.635 5.6409 18.61 3.8489Z" fill="#97A2BF"/>
<path fill-rule="evenodd" clip-rule="evenodd" d="M23.439 39.2898C23.915 38.7598 23.945 38.0398 23.513 37.5448C21.063 34.7368 18.047 33.2038 14.453 33.3388C10.861 33.4748 7.70501 35.2408 5.01101 38.2428C4.53601 38.7728 4.50501 39.4928 4.93801 39.9878C7.386 42.7958 10.403 44.3288 13.996 44.1938C17.589 44.0578 20.746 42.2918 23.439 39.2898ZM20.107 38.5448C18.131 40.4308 16.139 41.2818 14.116 41.3588C12.093 41.4348 10.166 40.7318 8.34301 38.9888C10.32 37.1018 12.311 36.2508 14.334 36.1748C16.358 36.0978 18.284 36.8018 20.107 38.5448Z" fill="#97A2BF"/>
<path fill-rule="evenodd" clip-rule="evenodd" d="M30.02 25.9099C30.162 25.2519 29.776 24.6299 29.09 24.4129C25.313 23.2149 21.733 23.3509 18.563 25.1149C15.408 26.8719 13.525 29.7609 12.723 33.4679C12.581 34.1259 12.967 34.7479 13.653 34.9649C17.43 36.1629 21.011 36.0269 24.18 34.2629C27.336 32.5059 29.219 29.6179 30.02 25.9099ZM26.562 26.7569C25.793 29.2419 24.439 30.8869 22.626 31.8969C20.838 32.8919 18.736 33.1969 16.182 32.6209C16.951 30.1359 18.304 28.4909 20.118 27.4809C21.906 26.4859 24.008 26.1809 26.562 26.7569Z" fill="#97A2BF"/>
<path fill-rule="evenodd" clip-rule="evenodd" d="M28.631 11.8348C28.393 11.2028 27.663 10.8478 26.894 10.9898C22.81 11.7468 19.666 13.5098 17.778 16.3988C15.897 19.2748 15.754 22.5128 17.051 25.9538C17.289 26.5858 18.02 26.9418 18.788 26.7988C22.872 26.0428 26.016 24.2788 27.905 21.3908C29.785 18.5138 29.928 15.2758 28.631 11.8348ZM25.946 14.0748C26.583 16.4558 26.254 18.4388 25.153 20.1238C24.066 21.7868 22.327 23.0078 19.736 23.7138C19.099 21.3338 19.428 19.3508 20.53 17.6658C21.617 16.0028 23.356 14.7818 25.946 14.0758V14.0748Z" fill="#97A2BF"/>
</g>
</g>
</g>
<defs>
<clipPath id="clip0_16_191">
<rect width="32" height="52" fill="white"/>
</clipPath>
</defs>
</svg>
