<svg width="32" height="52" viewBox="0 0 32 52" fill="none" xmlns="http://www.w3.org/2000/svg">
<g clip-path="url(#clip0_16_204)">
<mask id="mask0_16_204" style="mask-type:luminance" maskUnits="userSpaceOnUse" x="0" y="0" width="32" height="52">
<path d="M32 0H0V52H32V0Z" fill="white"/>
</mask>
<g mask="url(#mask0_16_204)">
<mask id="mask1_16_204" style="mask-type:luminance" maskUnits="userSpaceOnUse" x="1" y="0" width="31" height="53">
<path d="M31.555 0.000976562H1.43799V52.001H31.555V0.000976562Z" fill="white"/>
</mask>
<g mask="url(#mask1_16_204)">
<path fill-rule="evenodd" clip-rule="evenodd" d="M25.496 41.3029L24.436 39.7399L27.161 38.4299L28.221 39.9949C30.575 43.4709 29.434 47.7549 25.672 49.5609C24.48 50.1339 23.113 50.4079 21.708 50.3549L21.2 50.3349L21.08 47.4999L21.588 47.5199C22.4079 47.556 23.2244 47.3923 23.967 47.0429C26.224 45.9589 26.908 43.3889 25.496 41.3029ZM12.223 0.7959C12.803 0.3679 13.684 0.4019 14.303 0.8739C17.574 3.3719 19.443 6.2559 19.58 9.4909C19.716 12.7249 18.084 15.4779 15.014 17.7369C14.434 18.1639 13.552 18.1309 12.934 17.6579C9.66399 15.1599 7.79399 12.2759 7.65699 9.0409C7.52099 5.8069 9.15299 3.0539 12.223 0.7959ZM13.39 3.8489C11.56 5.4989 10.789 7.2669 10.869 9.1619C10.949 11.0569 11.872 12.8899 13.847 14.6829C15.677 13.0329 16.448 11.2649 16.368 9.3699C16.288 7.4749 15.365 5.6409 13.39 3.8489Z" fill="#97A2BF"/>
<path fill-rule="evenodd" clip-rule="evenodd" d="M8.56098 39.2898C8.08498 38.7598 8.05498 38.0398 8.48698 37.5448C10.937 34.7368 13.953 33.2038 17.547 33.3388C21.139 33.4748 24.295 35.2408 26.989 38.2428C27.464 38.7728 27.495 39.4928 27.062 39.9878C24.614 42.7958 21.597 44.3288 18.004 44.1938C14.411 44.0578 11.254 42.2918 8.56098 39.2898ZM11.893 38.5448C13.869 40.4308 15.861 41.2818 17.884 41.3588C19.907 41.4348 21.834 40.7318 23.657 38.9888C21.68 37.1018 19.689 36.2508 17.666 36.1748C15.642 36.0978 13.716 36.8018 11.893 38.5448Z" fill="#97A2BF"/>
<path fill-rule="evenodd" clip-rule="evenodd" d="M1.97999 25.9099C1.83799 25.2519 2.22399 24.6299 2.90999 24.4129C6.68699 23.2149 10.267 23.3509 13.437 25.1149C16.592 26.8719 18.475 29.7609 19.277 33.4679C19.419 34.1259 19.033 34.7479 18.347 34.9649C14.57 36.1629 10.989 36.0269 7.81999 34.2629C4.66399 32.5059 2.78099 29.6179 1.97999 25.9099ZM5.43799 26.7569C6.20699 29.2419 7.56099 30.8869 9.37399 31.8969C11.162 32.8919 13.264 33.1969 15.818 32.6209C15.049 30.1359 13.696 28.4909 11.882 27.4809C10.094 26.4859 7.99199 26.1809 5.43799 26.7569Z" fill="#97A2BF"/>
<path fill-rule="evenodd" clip-rule="evenodd" d="M3.36898 11.8348C3.60698 11.2028 4.33698 10.8478 5.10598 10.9898C9.18998 11.7468 12.334 13.5098 14.222 16.3988C16.103 19.2748 16.246 22.5128 14.949 25.9538C14.711 26.5858 13.98 26.9418 13.212 26.7988C9.12798 26.0428 5.98398 24.2788 4.09498 21.3908C2.21498 18.5138 2.07198 15.2758 3.36898 11.8348ZM6.05398 14.0748C5.41698 16.4558 5.74598 18.4388 6.84698 20.1238C7.93398 21.7868 9.67298 23.0078 12.264 23.7138C12.901 21.3338 12.572 19.3508 11.47 17.6658C10.383 16.0028 8.64398 14.7818 6.05398 14.0758V14.0748Z" fill="#97A2BF"/>
</g>
</g>
</g>
<defs>
<clipPath id="clip0_16_204">
<rect width="32" height="52" fill="white" transform="matrix(-1 0 0 1 32 0)"/>
</clipPath>
</defs>
</svg>
