<svg width="56" height="56" viewBox="0 0 56 56" fill="none" xmlns="http://www.w3.org/2000/svg">
<g filter="url(#filter0_i_12_303)">
<circle cx="28" cy="28" r="28" fill="#0A0019"/>
</g>
<circle cx="28" cy="28" r="27.5" stroke="#00FFFF"/>
<path d="M26 21L28 19M24 32L32 24M28 37L30 35M32.5 35C33.163 35 33.7989 34.7366 34.2678 34.2678C34.7366 33.7989 35 33.163 35 32.5C35 31.837 34.7366 31.2011 34.2678 30.7322C33.7989 30.2634 33.163 30 32.5 30C31.837 30 31.2011 30.2634 30.7322 30.7322C30.2634 31.2011 30 31.837 30 32.5C30 33.163 30.2634 33.7989 30.7322 34.2678C31.2011 34.7366 31.837 35 32.5 35ZM23.5 26C24.163 26 24.7989 25.7366 25.2678 25.2678C25.7366 24.7989 26 24.163 26 23.5C26 22.837 25.7366 22.2011 25.2678 21.7322C24.7989 21.2634 24.163 21 23.5 21C22.837 21 22.2011 21.2634 21.7322 21.7322C21.2634 22.2011 21 22.837 21 23.5C21 24.163 21.2634 24.7989 21.7322 25.2678C22.2011 25.7366 22.837 26 23.5 26ZM21.5 37C22.163 37 22.7989 36.7366 23.2678 36.2678C23.7366 35.7989 24 35.163 24 34.5C24 33.837 23.7366 33.2011 23.2678 32.7322C22.7989 32.2634 22.163 32 21.5 32C20.837 32 20.2011 32.2634 19.7322 32.7322C19.2634 33.2011 19 33.837 19 34.5C19 35.163 19.2634 35.7989 19.7322 36.2678C20.2011 36.7366 20.837 37 21.5 37ZM34.5 24C35.163 24 35.7989 23.7366 36.2678 23.2678C36.7366 22.7989 37 22.163 37 21.5C37 20.837 36.7366 20.2011 36.2678 19.7322C35.7989 19.2634 35.163 19 34.5 19C33.837 19 33.2011 19.2634 32.7322 19.7322C32.2634 20.2011 32 20.837 32 21.5C32 22.163 32.2634 22.7989 32.7322 23.2678C33.2011 23.7366 33.837 24 34.5 24Z" stroke="#00FFFF" stroke-width="1.5" stroke-linecap="round" stroke-linejoin="round"/>
<defs>
<filter id="filter0_i_12_303" x="0" y="0" width="56" height="56" filterUnits="userSpaceOnUse" color-interpolation-filters="sRGB">
<feFlood flood-opacity="0" result="BackgroundImageFix"/>
<feBlend mode="normal" in="SourceGraphic" in2="BackgroundImageFix" result="shape"/>
<feColorMatrix in="SourceAlpha" type="matrix" values="0 0 0 0 0 0 0 0 0 0 0 0 0 0 0 0 0 0 127 0" result="hardAlpha"/>
<feMorphology radius="6" operator="erode" in="SourceAlpha" result="effect1_innerShadow_12_303"/>
<feOffset/>
<feGaussianBlur stdDeviation="7.5"/>
<feComposite in2="hardAlpha" operator="arithmetic" k2="-1" k3="1"/>
<feColorMatrix type="matrix" values="0 0 0 0 0.101961 0 0 0 0 1 0 0 0 0 1 0 0 0 0.8 0"/>
<feBlend mode="normal" in2="shape" result="effect1_innerShadow_12_303"/>
</filter>
</defs>
</svg>
